<svg width="105" height="34" viewBox="0 0 105 34" fill="none" xmlns="http://www.w3.org/2000/svg">
<g clip-path="url(#clip0_11476_1583)">
<path d="M9.75004 14.712C7.48886 14.6146 5.39907 15.3313 3.74555 16.5914V7.23117C3.74555 6.22621 2.9295 5.41016 1.92453 5.41016C0.919565 5.4121 0.103516 6.22621 0.103516 7.23312V23.7898C0.103516 28.9373 4.24803 33.2065 9.39557 33.1773C14.6074 33.1461 18.7967 28.7971 18.5669 23.5288C18.3604 18.7805 14.5003 14.9223 9.75199 14.7158L9.75004 14.712ZM9.33909 29.5313C6.25602 29.5313 3.7475 27.0228 3.7475 23.9397C3.7475 20.8567 6.25602 18.3481 9.33909 18.3481C12.4222 18.3481 14.9307 20.8567 14.9307 23.9397C14.9307 27.0228 12.4222 29.5313 9.33909 29.5313Z" fill="white"/>
<path d="M31.471 23.9414H23.7253C22.7196 23.9414 21.9043 24.7567 21.9043 25.7624C21.9043 26.7681 22.7196 27.5834 23.7253 27.5834H31.471C32.4767 27.5834 33.292 26.7681 33.292 25.7624C33.292 24.7567 32.4767 23.9414 31.471 23.9414Z" fill="#007AF9"/>
<path d="M15.6702 1.12538L12.3233 9.18539C11.9377 10.1142 12.378 11.1798 13.3068 11.5655C14.2356 11.9512 15.3012 11.5109 15.6869 10.5821L19.0337 2.52207C19.4194 1.59324 18.9791 0.527615 18.0503 0.141932C17.1215 -0.243751 16.0558 0.196555 15.6702 1.12538Z" fill="#007AF9"/>
<path d="M30.8706 14.0412L22.4676 17.5219C21.5384 17.9067 21.0972 18.972 21.482 19.9012C21.8669 20.8303 22.9321 21.2716 23.8613 20.8867L32.2643 17.406C33.1935 17.0212 33.6347 15.9559 33.2498 15.0268C32.865 14.0976 31.7997 13.6564 30.8706 14.0412Z" fill="#007AF9"/>
<path d="M27.4224 3.20849L18.3482 12.2827C17.637 12.9938 17.637 14.1468 18.3482 14.858C19.0594 15.5691 20.2124 15.5691 20.9235 14.858L29.9977 5.78379C30.7088 5.07264 30.7088 3.91964 29.9977 3.20849C29.2865 2.49733 28.1335 2.49734 27.4224 3.20849Z" fill="#007AF9"/>
<path d="M44.7727 27.715C44.4397 27.715 44.0891 27.6819 43.7249 27.6196C43.3588 27.5553 43.0004 27.4306 42.6479 27.2437C42.2954 27.0586 41.9643 26.7918 41.6565 26.4451L41.6371 27.5806H39.002V13.9648H41.6955V18.6391C42.0792 18.1775 42.5583 17.8347 43.1289 17.6108C43.6996 17.3868 44.2917 17.2738 44.9071 17.2738C45.9062 17.2738 46.7281 17.5017 47.3689 17.9574C48.0097 18.4132 48.4868 19.0306 48.8023 19.8135C49.1159 20.5965 49.2737 21.4924 49.2737 22.5071C49.2737 23.5218 49.114 24.3826 48.7926 25.1714C48.4712 25.9602 47.9824 26.5815 47.3222 27.0372C46.6619 27.493 45.8128 27.7208 44.7747 27.7208L44.7727 27.715ZM44.1962 25.3116C44.8234 25.3116 45.3122 25.1714 45.6569 24.889C46.0036 24.6066 46.2471 24.2482 46.3873 23.812C46.5275 23.3757 46.5996 22.9219 46.5996 22.4467C46.5996 21.9715 46.5217 21.5274 46.3698 21.1106C46.2159 20.6938 45.9627 20.3608 45.6102 20.1115C45.2577 19.8622 44.7864 19.7356 44.1962 19.7356C43.6567 19.7356 43.1991 19.8681 42.8212 20.129C42.4434 20.392 42.1571 20.7347 41.9662 21.1574C41.7734 21.58 41.678 22.0358 41.678 22.5227C41.678 23.0096 41.7637 23.4692 41.937 23.8977C42.1103 24.3281 42.383 24.6709 42.755 24.926C43.127 25.1831 43.6081 25.3097 44.1982 25.3097L44.1962 25.3116Z" fill="white"/>
<path d="M55.4269 27.7165C54.4005 27.7165 53.5027 27.5081 52.7353 27.0914C51.966 26.6746 51.3701 26.0786 50.9474 25.3034C50.5248 24.5283 50.3125 23.6071 50.3125 22.5437C50.3125 21.4803 50.5267 20.5143 50.9572 19.7255C51.3876 18.9367 51.9855 18.331 52.7548 17.9084C53.5241 17.4857 54.4083 17.2734 55.4094 17.2734C56.4105 17.2734 57.3259 17.4916 58.0835 17.9278C58.8392 18.3641 59.4293 18.9737 59.8519 19.7547C60.2745 20.5376 60.4868 21.4725 60.4868 22.5632C60.4868 23.6538 60.2784 24.5478 59.8616 25.3229C59.4449 26.0981 58.8625 26.6921 58.1107 27.1011C57.3609 27.512 56.467 27.7165 55.4289 27.7165H55.4269ZM55.388 25.2548C55.9781 25.2548 56.4514 25.1262 56.8117 24.8711C57.17 24.614 57.431 24.279 57.5907 23.8622C57.7504 23.4454 57.8303 23.0072 57.8303 22.5456C57.8303 22.084 57.7504 21.6419 57.5907 21.2193C57.431 20.7967 57.1739 20.4461 56.8214 20.1715C56.4689 19.8949 55.9917 19.7586 55.388 19.7586C54.7842 19.7586 54.3421 19.8969 53.9838 20.1715C53.6254 20.448 53.3644 20.7967 53.2047 21.2193C53.045 21.6419 52.9652 22.084 52.9652 22.5456C52.9652 23.0072 53.045 23.4629 53.2047 23.8719C53.3644 24.2829 53.6254 24.6159 53.9838 24.8711C54.3421 25.1282 54.8115 25.2548 55.388 25.2548Z" fill="white"/>
<path d="M67.677 27.715C67.344 27.715 66.9934 27.6819 66.6292 27.6196C66.2631 27.5553 65.9047 27.4306 65.5522 27.2437C65.1997 27.0586 64.8686 26.7918 64.5608 26.4451L64.5414 27.5806H61.9062V13.9648H64.5998V18.6391C64.9835 18.1775 65.4626 17.8347 66.0332 17.6108C66.6039 17.3868 67.196 17.2738 67.8114 17.2738C68.8105 17.2738 69.6324 17.5017 70.2732 17.9574C70.914 18.4132 71.3911 19.0306 71.7066 19.8135C72.0202 20.5965 72.178 21.4924 72.178 22.5071C72.178 23.5218 72.0183 24.3826 71.6969 25.1714C71.3755 25.9602 70.8867 26.5815 70.2265 27.0372C69.5662 27.493 68.7171 27.7208 67.679 27.7208L67.677 27.715ZM67.1005 25.3116C67.7277 25.3116 68.2165 25.1714 68.5612 24.889C68.9079 24.6066 69.1514 24.2482 69.2916 23.812C69.4318 23.3757 69.5039 22.9219 69.5039 22.4467C69.5039 21.9715 69.426 21.5274 69.2741 21.1106C69.1202 20.6938 68.867 20.3608 68.5145 20.1115C68.162 19.8622 67.6907 19.7356 67.1005 19.7356C66.561 19.7356 66.1034 19.8681 65.7255 20.129C65.3477 20.392 65.0614 20.7347 64.8705 21.1574C64.6777 21.58 64.5823 22.0358 64.5823 22.5227C64.5823 23.0096 64.668 23.4692 64.8413 23.8977C65.0146 24.3281 65.2873 24.6709 65.6593 24.926C66.0313 25.1831 66.5124 25.3097 67.1025 25.3097L67.1005 25.3116Z" fill="white"/>
<path d="M73.832 31.236V17.4469H75.3901L75.468 18.9661C75.8147 18.4402 76.286 18.0371 76.882 17.7547C77.478 17.4723 78.1226 17.332 78.814 17.332C79.8404 17.332 80.6798 17.5599 81.3342 18.0156C81.9886 18.4714 82.4716 19.0888 82.7872 19.8717C83.1007 20.6547 83.2585 21.5389 83.2585 22.5263C83.2585 23.5138 83.0988 24.398 82.7774 25.1809C82.4561 25.9638 81.9633 26.5793 81.2972 27.0272C80.6311 27.4752 79.7781 27.7011 78.74 27.7011C78.2278 27.7011 77.7662 27.6466 77.3553 27.5375C76.9443 27.4285 76.586 27.2688 76.2782 27.0565C75.9705 26.8442 75.7017 26.5988 75.47 26.3164V31.2399H73.8359L73.832 31.236ZM78.6017 26.256C79.3457 26.256 79.9359 26.0866 80.3702 25.7457C80.8064 25.4068 81.1239 24.955 81.3225 24.3902C81.5212 23.8254 81.6205 23.2041 81.6205 22.5244C81.6205 21.8447 81.5212 21.2039 81.3225 20.6391C81.1239 20.0743 80.8006 19.6263 80.3507 19.2933C79.9008 18.9602 79.3048 18.7927 78.5628 18.7927C77.8967 18.7927 77.328 18.9622 76.8606 19.303C76.3931 19.6438 76.0367 20.0976 75.7933 20.6683C75.5498 21.2389 75.4271 21.8641 75.4271 22.5438C75.4271 23.2236 75.542 23.8838 75.7738 24.4486C76.0056 25.0134 76.3581 25.4555 76.8314 25.7749C77.3046 26.0963 77.8948 26.256 78.5998 26.256H78.6017Z" fill="white"/>
<path d="M88.3902 27.6953C87.9286 27.6953 87.4826 27.6349 87.0542 27.5122C86.6237 27.3915 86.24 27.2045 85.9012 26.9552C85.5603 26.7059 85.2916 26.3904 85.0929 26.0125C84.8942 25.6347 84.7949 25.1945 84.7949 24.696C84.7949 24.1195 84.9001 23.6326 85.1124 23.2352C85.3247 22.8379 85.609 22.5244 85.9674 22.2926C86.3257 22.0628 86.7425 21.8953 87.2178 21.7921C87.691 21.6888 88.1857 21.6382 88.6979 21.6382H91.6797C91.6797 21.0617 91.5999 20.5612 91.4402 20.1385C91.2805 19.7159 91.0195 19.3848 90.6611 19.1492C90.3028 18.9115 89.8276 18.7927 89.2374 18.7927C88.8791 18.7927 88.546 18.8317 88.2383 18.9076C87.9306 18.9836 87.6677 19.1063 87.4495 19.2738C87.2314 19.4413 87.0717 19.6653 86.9685 19.9477H85.2176C85.3071 19.4861 85.4844 19.0927 85.7473 18.7655C86.0102 18.4383 86.3316 18.1695 86.7094 17.9572C87.0873 17.7449 87.4943 17.5891 87.9306 17.4859C88.3668 17.3827 88.8031 17.332 89.2374 17.332C90.6981 17.332 91.7382 17.7625 92.3536 18.6214C92.9691 19.4802 93.2768 20.641 93.2768 22.1017V27.5823H91.9115L91.8161 26.293C91.5337 26.6786 91.1948 26.9727 90.7975 27.1772C90.4002 27.3817 89.9931 27.52 89.5763 27.5901C89.1595 27.6602 88.7661 27.6953 88.3941 27.6953H88.3902ZM88.5441 26.254C89.1848 26.254 89.7399 26.1489 90.2073 25.9366C90.6748 25.7243 91.037 25.4146 91.2941 25.0037C91.5512 24.5927 91.6778 24.0941 91.6778 23.504V23.0035H89.8899C89.4672 23.0035 89.0505 23.0093 88.6395 23.023C88.2286 23.0366 87.8566 23.0872 87.5235 23.1768C87.1905 23.2664 86.9237 23.4203 86.725 23.6384C86.5264 23.8565 86.427 24.1701 86.427 24.581C86.427 24.9647 86.5264 25.2802 86.725 25.5237C86.9237 25.7671 87.1866 25.9502 87.5138 26.071C87.841 26.1937 88.1838 26.254 88.5421 26.254H88.5441Z" fill="white"/>
<path d="M99.9659 32.1206C99.183 32.1206 98.4312 32.0115 97.7067 31.7934C96.9821 31.5752 96.3316 31.1974 95.7552 30.6579L96.466 29.3686C96.9666 29.7659 97.5002 30.0795 98.0728 30.3112C98.6435 30.543 99.2433 30.6579 99.8705 30.6579C100.922 30.6579 101.674 30.3541 102.13 29.7445C102.585 29.1349 102.813 28.3636 102.813 27.4268V26.2154C102.582 26.5621 102.291 26.8464 101.939 27.0704C101.586 27.2944 101.199 27.4619 100.776 27.5709C100.353 27.68 99.9172 27.7345 99.4693 27.7345C98.4701 27.7345 97.6813 27.5359 97.1029 27.1386C96.5264 26.7413 96.1155 26.1901 95.872 25.4851C95.6286 24.78 95.5059 23.9659 95.5059 23.0428V17.4453H97.1399V22.5812C97.1399 23.0428 97.1691 23.4946 97.2256 23.9367C97.284 24.3788 97.4009 24.7761 97.582 25.1286C97.7612 25.4812 98.0241 25.7636 98.3708 25.9739C98.7175 26.1842 99.1791 26.2914 99.7556 26.2914C100.486 26.2914 101.072 26.1122 101.516 25.7538C101.958 25.3955 102.28 24.9144 102.478 24.3106C102.677 23.7088 102.776 23.0408 102.776 22.3104V17.4453H104.41V27.5807C104.41 28.311 104.315 28.9596 104.122 29.5225C103.929 30.0873 103.641 30.5605 103.257 30.9462C102.874 31.3318 102.408 31.622 101.863 31.8206C101.318 32.0193 100.687 32.1186 99.9678 32.1186L99.9659 32.1206Z" fill="white"/>
</g>
<defs>
<clipPath id="clip0_11476_1583">
<rect width="104.306" height="33.1756" fill="white" transform="translate(0.103516)"/>
</clipPath>
</defs>
</svg>
